# xmcd
#
# Track frame offsets: 
#        182
#        14997
#        30790
#        51087
#        66807
#        79030
#        93110
#        106077
#        121652
#        133590
#        147087
#        162932
#        176962
#        195757
#        213535
#        226990
#        243332
#        258175
#
# Disc length: 3603 seconds
#
# Revision: 0
# Processed by: cddbd v1.4PL0 Copyright (c) Steve Scherf et al.
# Submitted via: ExactAudioCopy v0.90b4
#
DISCID=e40e1112
DTITLE=Earl King - Street Parade
DYEAR=1972
DGENRE=R&B
TTITLE0=Street Parade Pt. 1
TTITLE1=You Make Me Feel Good
TTITLE2=Some People Are
TTITLE3=Fallin'
TTITLE4=A Mother's Love
TTITLE5=Mama and Papa
TTITLE6=Medieval Days
TTITLE7=This is What I Call Living
TTITLE8=Do the Grind
TTITLE9=A Part of Me
TTITLE10=Love Look Out For Me
TTITLE11=Street Parade Pt. 2
TTITLE12=All My Love
TTITLE13=I'm Gonna Keep On trying
TTITLE14=Up On Her Hill
TTITLE15=Am I Your Dog Pt. 1
TTITLE16=Am I Your Dog Pt. 2
TTITLE17=The Real McCoy
EXTD=
EXTT0=
EXTT1=
EXTT2=
EXTT3=
EXTT4=
EXTT5=
EXTT6=
EXTT7=
EXTT8=
EXTT9=
EXTT10=
EXTT11=
EXTT12=
EXTT13=
EXTT14=
EXTT15=
EXTT16=
EXTT17=
PLAYORDER=
